<mxfile host="app.diagrams.net" modified="2022-11-30T06:53:27.896Z" agent="5.0 (X11)" version="20.6.0" etag="pP8VukaOLxVAoEfML33w" type="github">
  <diagram id="norZwPxRSZfCrgpeO-FK" name="第 1 页">
    <mxGraphModel dx="625" dy="334" grid="1" gridSize="10" guides="1" tooltips="1" connect="1" arrows="1" fold="1" page="1" pageScale="1" pageWidth="827" pageHeight="1169" math="0" shadow="0">
      <root>
        <mxCell id="0" />
        <mxCell id="1" parent="0" />
        <mxCell id="gFRahJdV8iA5KFpX1igJ-15" value="" style="childLayout=tableLayout;recursiveResize=0;shadow=0;fillColor=none;" vertex="1" parent="1">
          <mxGeometry x="250" y="190" width="240" height="120" as="geometry" />
        </mxCell>
        <mxCell id="gFRahJdV8iA5KFpX1igJ-16" value="" style="shape=tableRow;horizontal=0;startSize=0;swimlaneHead=0;swimlaneBody=0;top=0;left=0;bottom=0;right=0;dropTarget=0;collapsible=0;recursiveResize=0;expand=0;fontStyle=0;fillColor=none;strokeColor=inherit;" vertex="1" parent="gFRahJdV8iA5KFpX1igJ-15">
          <mxGeometry width="240" height="30" as="geometry" />
        </mxCell>
        <mxCell id="gFRahJdV8iA5KFpX1igJ-17" value="Tag" style="connectable=0;recursiveResize=0;strokeColor=#006EAF;fillColor=#1ba1e2;align=center;whiteSpace=wrap;html=1;fontColor=#ffffff;" vertex="1" parent="gFRahJdV8iA5KFpX1igJ-16">
          <mxGeometry width="60" height="30" as="geometry">
            <mxRectangle width="60" height="30" as="alternateBounds" />
          </mxGeometry>
        </mxCell>
        <mxCell id="gFRahJdV8iA5KFpX1igJ-18" value="Addr" style="connectable=0;recursiveResize=0;strokeColor=#006EAF;fillColor=#1ba1e2;align=center;whiteSpace=wrap;html=1;fontColor=#ffffff;" vertex="1" parent="gFRahJdV8iA5KFpX1igJ-16">
          <mxGeometry x="60" width="60" height="30" as="geometry">
            <mxRectangle width="60" height="30" as="alternateBounds" />
          </mxGeometry>
        </mxCell>
        <mxCell id="gFRahJdV8iA5KFpX1igJ-19" value="Stride" style="connectable=0;recursiveResize=0;strokeColor=#006EAF;fillColor=#1ba1e2;align=center;whiteSpace=wrap;html=1;fontColor=#ffffff;" vertex="1" parent="gFRahJdV8iA5KFpX1igJ-16">
          <mxGeometry x="120" width="60" height="30" as="geometry">
            <mxRectangle width="60" height="30" as="alternateBounds" />
          </mxGeometry>
        </mxCell>
        <mxCell id="gFRahJdV8iA5KFpX1igJ-28" value="State" style="connectable=0;recursiveResize=0;strokeColor=#006EAF;fillColor=#1ba1e2;align=center;whiteSpace=wrap;html=1;fontColor=#ffffff;" vertex="1" parent="gFRahJdV8iA5KFpX1igJ-16">
          <mxGeometry x="180" width="60" height="30" as="geometry">
            <mxRectangle width="60" height="30" as="alternateBounds" />
          </mxGeometry>
        </mxCell>
        <mxCell id="gFRahJdV8iA5KFpX1igJ-20" style="shape=tableRow;horizontal=0;startSize=0;swimlaneHead=0;swimlaneBody=0;top=0;left=0;bottom=0;right=0;dropTarget=0;collapsible=0;recursiveResize=0;expand=0;fontStyle=0;fillColor=none;strokeColor=inherit;" vertex="1" parent="gFRahJdV8iA5KFpX1igJ-15">
          <mxGeometry y="30" width="240" height="30" as="geometry" />
        </mxCell>
        <mxCell id="gFRahJdV8iA5KFpX1igJ-21" value="" style="connectable=0;recursiveResize=0;strokeColor=#6c8ebf;fillColor=#dae8fc;align=center;whiteSpace=wrap;html=1;" vertex="1" parent="gFRahJdV8iA5KFpX1igJ-20">
          <mxGeometry width="60" height="30" as="geometry">
            <mxRectangle width="60" height="30" as="alternateBounds" />
          </mxGeometry>
        </mxCell>
        <mxCell id="gFRahJdV8iA5KFpX1igJ-22" value="" style="connectable=0;recursiveResize=0;strokeColor=#6c8ebf;fillColor=#dae8fc;align=center;whiteSpace=wrap;html=1;" vertex="1" parent="gFRahJdV8iA5KFpX1igJ-20">
          <mxGeometry x="60" width="60" height="30" as="geometry">
            <mxRectangle width="60" height="30" as="alternateBounds" />
          </mxGeometry>
        </mxCell>
        <mxCell id="gFRahJdV8iA5KFpX1igJ-23" value="" style="connectable=0;recursiveResize=0;strokeColor=#6c8ebf;fillColor=#dae8fc;align=center;whiteSpace=wrap;html=1;" vertex="1" parent="gFRahJdV8iA5KFpX1igJ-20">
          <mxGeometry x="120" width="60" height="30" as="geometry">
            <mxRectangle width="60" height="30" as="alternateBounds" />
          </mxGeometry>
        </mxCell>
        <mxCell id="gFRahJdV8iA5KFpX1igJ-29" style="connectable=0;recursiveResize=0;strokeColor=#6c8ebf;fillColor=#dae8fc;align=center;whiteSpace=wrap;html=1;" vertex="1" parent="gFRahJdV8iA5KFpX1igJ-20">
          <mxGeometry x="180" width="60" height="30" as="geometry">
            <mxRectangle width="60" height="30" as="alternateBounds" />
          </mxGeometry>
        </mxCell>
        <mxCell id="gFRahJdV8iA5KFpX1igJ-31" style="shape=tableRow;horizontal=0;startSize=0;swimlaneHead=0;swimlaneBody=0;top=0;left=0;bottom=0;right=0;dropTarget=0;collapsible=0;recursiveResize=0;expand=0;fontStyle=0;fillColor=none;strokeColor=inherit;" vertex="1" parent="gFRahJdV8iA5KFpX1igJ-15">
          <mxGeometry y="60" width="240" height="30" as="geometry" />
        </mxCell>
        <mxCell id="gFRahJdV8iA5KFpX1igJ-32" style="connectable=0;recursiveResize=0;strokeColor=#666666;fillColor=#f5f5f5;align=center;whiteSpace=wrap;html=1;fontColor=#333333;" vertex="1" parent="gFRahJdV8iA5KFpX1igJ-31">
          <mxGeometry width="60" height="30" as="geometry">
            <mxRectangle width="60" height="30" as="alternateBounds" />
          </mxGeometry>
        </mxCell>
        <mxCell id="gFRahJdV8iA5KFpX1igJ-33" style="connectable=0;recursiveResize=0;strokeColor=#666666;fillColor=#f5f5f5;align=center;whiteSpace=wrap;html=1;fontColor=#333333;" vertex="1" parent="gFRahJdV8iA5KFpX1igJ-31">
          <mxGeometry x="60" width="60" height="30" as="geometry">
            <mxRectangle width="60" height="30" as="alternateBounds" />
          </mxGeometry>
        </mxCell>
        <mxCell id="gFRahJdV8iA5KFpX1igJ-34" style="connectable=0;recursiveResize=0;strokeColor=#666666;fillColor=#f5f5f5;align=center;whiteSpace=wrap;html=1;fontColor=#333333;" vertex="1" parent="gFRahJdV8iA5KFpX1igJ-31">
          <mxGeometry x="120" width="60" height="30" as="geometry">
            <mxRectangle width="60" height="30" as="alternateBounds" />
          </mxGeometry>
        </mxCell>
        <mxCell id="gFRahJdV8iA5KFpX1igJ-35" style="connectable=0;recursiveResize=0;strokeColor=#666666;fillColor=#f5f5f5;align=center;whiteSpace=wrap;html=1;fontColor=#333333;" vertex="1" parent="gFRahJdV8iA5KFpX1igJ-31">
          <mxGeometry x="180" width="60" height="30" as="geometry">
            <mxRectangle width="60" height="30" as="alternateBounds" />
          </mxGeometry>
        </mxCell>
        <mxCell id="gFRahJdV8iA5KFpX1igJ-24" style="shape=tableRow;horizontal=0;startSize=0;swimlaneHead=0;swimlaneBody=0;top=0;left=0;bottom=0;right=0;dropTarget=0;collapsible=0;recursiveResize=0;expand=0;fontStyle=0;fillColor=none;strokeColor=inherit;" vertex="1" parent="gFRahJdV8iA5KFpX1igJ-15">
          <mxGeometry y="90" width="240" height="30" as="geometry" />
        </mxCell>
        <mxCell id="gFRahJdV8iA5KFpX1igJ-25" value="" style="connectable=0;recursiveResize=0;strokeColor=#6c8ebf;fillColor=#dae8fc;align=center;whiteSpace=wrap;html=1;" vertex="1" parent="gFRahJdV8iA5KFpX1igJ-24">
          <mxGeometry width="60" height="30" as="geometry">
            <mxRectangle width="60" height="30" as="alternateBounds" />
          </mxGeometry>
        </mxCell>
        <mxCell id="gFRahJdV8iA5KFpX1igJ-26" value="" style="connectable=0;recursiveResize=0;strokeColor=#6c8ebf;fillColor=#dae8fc;align=center;whiteSpace=wrap;html=1;" vertex="1" parent="gFRahJdV8iA5KFpX1igJ-24">
          <mxGeometry x="60" width="60" height="30" as="geometry">
            <mxRectangle width="60" height="30" as="alternateBounds" />
          </mxGeometry>
        </mxCell>
        <mxCell id="gFRahJdV8iA5KFpX1igJ-27" value="" style="connectable=0;recursiveResize=0;strokeColor=#6c8ebf;fillColor=#dae8fc;align=center;whiteSpace=wrap;html=1;" vertex="1" parent="gFRahJdV8iA5KFpX1igJ-24">
          <mxGeometry x="120" width="60" height="30" as="geometry">
            <mxRectangle width="60" height="30" as="alternateBounds" />
          </mxGeometry>
        </mxCell>
        <mxCell id="gFRahJdV8iA5KFpX1igJ-30" style="connectable=0;recursiveResize=0;strokeColor=#6c8ebf;fillColor=#dae8fc;align=center;whiteSpace=wrap;html=1;" vertex="1" parent="gFRahJdV8iA5KFpX1igJ-24">
          <mxGeometry x="180" width="60" height="30" as="geometry">
            <mxRectangle width="60" height="30" as="alternateBounds" />
          </mxGeometry>
        </mxCell>
        <mxCell id="gFRahJdV8iA5KFpX1igJ-36" value="" style="rounded=0;whiteSpace=wrap;html=1;" vertex="1" parent="1">
          <mxGeometry x="160" y="150" width="80" height="20" as="geometry" />
        </mxCell>
        <mxCell id="gFRahJdV8iA5KFpX1igJ-40" style="edgeStyle=orthogonalEdgeStyle;rounded=0;orthogonalLoop=1;jettySize=auto;html=1;" edge="1" parent="1" source="gFRahJdV8iA5KFpX1igJ-37">
          <mxGeometry relative="1" as="geometry">
            <mxPoint x="250" y="260" as="targetPoint" />
            <Array as="points">
              <mxPoint x="230" y="260" />
              <mxPoint x="250" y="260" />
            </Array>
          </mxGeometry>
        </mxCell>
        <mxCell id="gFRahJdV8iA5KFpX1igJ-37" value="" style="rounded=0;whiteSpace=wrap;html=1;fillColor=#d5e8d4;strokeColor=#82b366;" vertex="1" parent="1">
          <mxGeometry x="210" y="150" width="30" height="20" as="geometry" />
        </mxCell>
        <mxCell id="gFRahJdV8iA5KFpX1igJ-38" style="edgeStyle=orthogonalEdgeStyle;rounded=0;orthogonalLoop=1;jettySize=auto;html=1;exitX=0.5;exitY=1;exitDx=0;exitDy=0;" edge="1" parent="1" source="gFRahJdV8iA5KFpX1igJ-36" target="gFRahJdV8iA5KFpX1igJ-36">
          <mxGeometry relative="1" as="geometry" />
        </mxCell>
        <mxCell id="gFRahJdV8iA5KFpX1igJ-39" value="&lt;font style=&quot;font-size: 17px;&quot;&gt;PC&lt;/font&gt;" style="text;html=1;strokeColor=none;fillColor=none;align=center;verticalAlign=middle;whiteSpace=wrap;rounded=0;" vertex="1" parent="1">
          <mxGeometry x="231" y="145" width="60" height="30" as="geometry" />
        </mxCell>
        <mxCell id="gFRahJdV8iA5KFpX1igJ-45" style="edgeStyle=orthogonalEdgeStyle;rounded=0;orthogonalLoop=1;jettySize=auto;html=1;entryX=0;entryY=0.5;entryDx=0;entryDy=0;fontSize=40;" edge="1" parent="1" source="gFRahJdV8iA5KFpX1igJ-42" target="gFRahJdV8iA5KFpX1igJ-44">
          <mxGeometry relative="1" as="geometry">
            <Array as="points">
              <mxPoint x="290" y="405" />
            </Array>
          </mxGeometry>
        </mxCell>
        <mxCell id="gFRahJdV8iA5KFpX1igJ-42" value="&lt;font style=&quot;font-size: 40px;&quot;&gt;-&lt;/font&gt;" style="shape=trapezoid;perimeter=trapezoidPerimeter;whiteSpace=wrap;html=1;fixedSize=1;fontSize=17;direction=west;" vertex="1" parent="1">
          <mxGeometry x="250" y="360" width="90" height="30" as="geometry" />
        </mxCell>
        <mxCell id="gFRahJdV8iA5KFpX1igJ-43" value="&lt;font style=&quot;font-size: 40px;&quot;&gt;+&lt;/font&gt;" style="shape=trapezoid;perimeter=trapezoidPerimeter;whiteSpace=wrap;html=1;fixedSize=1;fontSize=17;direction=west;" vertex="1" parent="1">
          <mxGeometry x="414" y="360" width="86" height="30" as="geometry" />
        </mxCell>
        <mxCell id="gFRahJdV8iA5KFpX1igJ-44" value="=" style="ellipse;whiteSpace=wrap;html=1;aspect=fixed;fontSize=40;" vertex="1" parent="1">
          <mxGeometry x="358" y="380" width="50" height="50" as="geometry" />
        </mxCell>
        <mxCell id="gFRahJdV8iA5KFpX1igJ-46" value="" style="endArrow=classic;html=1;rounded=0;fontSize=40;entryX=1;entryY=0;entryDx=0;entryDy=0;" edge="1" parent="1" target="gFRahJdV8iA5KFpX1igJ-44">
          <mxGeometry width="50" height="50" relative="1" as="geometry">
            <mxPoint x="400" y="270" as="sourcePoint" />
            <mxPoint x="240" y="330" as="targetPoint" />
          </mxGeometry>
        </mxCell>
        <mxCell id="gFRahJdV8iA5KFpX1igJ-47" value="" style="endArrow=classic;html=1;rounded=0;fontSize=40;entryX=0.138;entryY=1.04;entryDx=0;entryDy=0;entryPerimeter=0;" edge="1" parent="1" target="gFRahJdV8iA5KFpX1igJ-42">
          <mxGeometry width="50" height="50" relative="1" as="geometry">
            <mxPoint x="328" y="270" as="sourcePoint" />
            <mxPoint x="250" y="330" as="targetPoint" />
          </mxGeometry>
        </mxCell>
        <mxCell id="gFRahJdV8iA5KFpX1igJ-48" value="" style="endArrow=classic;html=1;rounded=0;fontSize=40;entryX=0.75;entryY=1;entryDx=0;entryDy=0;" edge="1" parent="1" target="gFRahJdV8iA5KFpX1igJ-42">
          <mxGeometry width="50" height="50" relative="1" as="geometry">
            <mxPoint x="160" y="330" as="sourcePoint" />
            <mxPoint x="220" y="330" as="targetPoint" />
            <Array as="points">
              <mxPoint x="273" y="330" />
            </Array>
          </mxGeometry>
        </mxCell>
        <mxCell id="gFRahJdV8iA5KFpX1igJ-49" value="" style="endArrow=classic;html=1;rounded=0;fontSize=40;entryX=0.75;entryY=1;entryDx=0;entryDy=0;" edge="1" parent="1" target="gFRahJdV8iA5KFpX1igJ-43">
          <mxGeometry width="50" height="50" relative="1" as="geometry">
            <mxPoint x="200" y="330" as="sourcePoint" />
            <mxPoint x="220" y="360" as="targetPoint" />
            <Array as="points">
              <mxPoint x="436" y="330" />
            </Array>
          </mxGeometry>
        </mxCell>
        <mxCell id="gFRahJdV8iA5KFpX1igJ-50" value="&lt;font style=&quot;font-size: 20px;&quot;&gt;new_addr&lt;/font&gt;" style="text;html=1;strokeColor=none;fillColor=none;align=center;verticalAlign=middle;whiteSpace=wrap;rounded=0;fontSize=40;" vertex="1" parent="1">
          <mxGeometry x="171" y="295" width="60" height="30" as="geometry" />
        </mxCell>
        <mxCell id="gFRahJdV8iA5KFpX1igJ-51" value="" style="endArrow=classic;html=1;rounded=0;fontSize=20;entryX=0.217;entryY=0.989;entryDx=0;entryDy=0;entryPerimeter=0;" edge="1" parent="1" target="gFRahJdV8iA5KFpX1igJ-43">
          <mxGeometry width="50" height="50" relative="1" as="geometry">
            <mxPoint x="400" y="290" as="sourcePoint" />
            <mxPoint x="560" y="310" as="targetPoint" />
            <Array as="points">
              <mxPoint x="400" y="320" />
              <mxPoint x="480" y="320" />
            </Array>
          </mxGeometry>
        </mxCell>
        <mxCell id="gFRahJdV8iA5KFpX1igJ-52" value="" style="endArrow=classic;html=1;rounded=0;fontSize=20;exitX=0.5;exitY=0;exitDx=0;exitDy=0;" edge="1" parent="1">
          <mxGeometry width="50" height="50" relative="1" as="geometry">
            <mxPoint x="458" y="390" as="sourcePoint" />
            <mxPoint x="490" y="430" as="targetPoint" />
            <Array as="points">
              <mxPoint x="458" y="430" />
              <mxPoint x="470" y="430" />
            </Array>
          </mxGeometry>
        </mxCell>
        <mxCell id="gFRahJdV8iA5KFpX1igJ-53" value="Steady" style="text;html=1;strokeColor=none;fillColor=none;align=center;verticalAlign=middle;whiteSpace=wrap;rounded=0;fontSize=20;" vertex="1" parent="1">
          <mxGeometry x="358" y="440" width="60" height="30" as="geometry" />
        </mxCell>
      </root>
    </mxGraphModel>
  </diagram>
</mxfile>
